<svg version="1" xmlns="http://www.w3.org/2000/svg" width="666.667" height="666.667" viewBox="0 0 500.000000 500.000000"><path d="M246.5 2c-.4.6-3.4 2.5-6.7 4.3-3.4 1.7-6.8 3.6-7.7 4.2-2.5 1.5-7.7 4.6-44.1 25.5-18.4 10.7-50.4 29.1-71 41-20.6 11.9-46.7 27-58 33.5-11.3 6.5-21.6 12.6-23 13.5l-2.5 1.8.1 124.1c.1 105.8.3 124.4 1.5 125.5.8.7 12.7 7.7 26.4 15.6 13.8 7.9 46.4 26.7 72.5 41.8 26.1 15.1 49.5 28.6 52 30 2.5 1.3 8.1 4.6 12.5 7.2 12.2 7.2 33.9 19.7 47.5 27.3l4.5 2.5 7-4.2c11.2-6.8 104.7-60.8 184.5-106.6 11.8-6.8 22.1-12.9 22.9-13.6 1.2-1.1 1.5-6.3 1.5-28.1l.1-26.8-13.5-8-13.5-8.1-.2-79.4c-.1-43.7-.2-80.7-.2-82.2-.1-1.9-.9-3.1-2.8-4-1.6-.8-14.5-8.2-28.8-16.4-14.3-8.3-28.3-16.3-31-17.9l-5-2.8-25.5 14.8c-14 8.1-26.9 15.6-28.7 16.6-1.8 1-16.6 9.6-33 19-16.4 9.5-30.9 17.8-32.1 18.5-2.1 1.1-3.3.7-11-3.8-4.8-2.8-10.5-6-12.7-7.3-2.2-1.2-18.2-10.5-35.5-20.5s-33.1-19.1-35-20.2c-9.4-5.4-13.1-7.5-20.6-12-4.5-2.6-8.5-4.8-8.9-4.8-.6 0-13.5 7.2-21 11.7-1.1.7-2.6 1.5-3.4 1.9-.7.4-9.1 5.2-18.5 10.7-9.4 5.5-18.8 10.9-20.9 12-3.6 2-3.7 2.3-3.8 7.6-.1 5.3 0 132.9.1 188.1v25.5l11.3 6.4c6.1 3.6 21.2 12.3 33.5 19.4 12.2 7 22.6 12.7 23 12.5.4-.2 3.5-1.9 7-3.8l6.2-3.5V203.2l33.8 19.5c18.5 10.8 35.7 20.7 38.2 22.1 2.5 1.4 11.3 6.5 19.7 11.3 8.4 4.9 15.7 8.9 16.3 8.9.9 0 6.6-3.2 26.2-14.5 1-.6 9.9-5.7 19.9-11.5 10-5.8 20.1-11.6 22.3-12.9 2.3-1.3 8.4-4.8 13.6-7.8 5.2-3.1 11.5-6.7 14-8.1 2.5-1.4 5.9-3.4 7.5-4.4 1.7-1 3.3-1.8 3.8-1.8.4 0 .7 11.9.7 26.5s-.3 26.5-.7 26.5c-.5-.1-6.4-3.4-13.3-7.5l-12.5-7.3-6.7 3.6c-3.8 2.1-6.8 4-6.8 4.3 0 .3 1.5 1.3 3.3 2.2 3.7 1.9 6.7 3.6 24 13.6l12.7 7.3V390.5l3.3 1.9c1.7 1 4.9 2.7 6.9 3.8l3.7 1.9 33.3-19.1c18.3-10.6 33.4-19.3 33.6-19.5.2-.2.4-9 .4-19.7l.1-19.5 6.8 3.9 6.8 3.9-.2 19.6-.2 19.5-12.5 7.2c-59.3 34.3-77.4 44.8-83 48-3.6 2-7.2 4.1-8 4.6-2.1 1.3-23.3 13.5-25.1 14.4-.8.4-4.2 2.4-7.6 4.4-3.5 2-11.7 6.8-18.4 10.7-6.7 3.8-13.4 7.7-14.8 8.5-7.5 4.4-23.9 13.8-28.3 16.3l-5 2.8-10.6-6.2c-5.9-3.4-12-6.9-13.7-7.9-1.6-.9-23.5-13.5-48.5-28-25-14.4-51.6-29.7-59-34.1-7.4-4.3-26.3-15.2-42-24.2l-28.5-16.5V132.8l54.5-31.5c62.3-36 111.9-64.6 117-67.5 1.9-1.1 9.7-5.6 17.3-10l13.7-8 46.3 26.7C321.7 57.2 343.9 70 345.5 71c7.5 4.3 45.9 26.4 75 43.3l32 18.5.2 28.8c.1 15.9.3 42.3.3 58.6v29.7l6.5-3.7c5.2-3 6.5-4.2 6.6-6.2 0-1.4.1-27.8.2-58.7l.2-56.2-14.5-8.3c-8-4.5-15.4-8.8-16.5-9.4-1.8-1-19.2-11.1-84.5-48.9-10.7-6.2-21.1-12.2-23-13.2-14.2-8.1-69.2-40-72.2-41.9-3.9-2.5-8.2-3.1-9.3-1.4z"/></svg>